<svg width="20" height="21" viewBox="0 0 20 21" fill="none" xmlns="http://www.w3.org/2000/svg">
<path d="M0.553438 0.745623C-0.184478 1.49044 -0.184478 2.69802 0.55344 3.44284L7.32778 10.2805L0.553436 17.1182C-0.184481 17.863 -0.184479 19.0706 0.553437 19.8154C1.29136 20.5602 2.48776 20.5602 3.22567 19.8154L10 12.9777L16.7743 19.8154C17.5122 20.5602 18.7086 20.5602 19.4466 19.8154C20.1845 19.0705 20.1845 17.863 19.4466 17.1181L12.6722 10.2805L19.4466 3.44286C20.1845 2.69805 20.1845 1.49047 19.4466 0.74565C18.7086 0.000836083 17.5122 0.000836031 16.7743 0.745652L10 7.58329L3.22567 0.745623C2.48776 0.000806971 1.29136 0.000806918 0.553438 0.745623Z" fill="#754E29"/>
</svg>
